<svg width="24" height="24" viewBox="0 0 24 24" fill="none" xmlns="http://www.w3.org/2000/svg">
<path d="M3.4 20.3999L20.85 12.9199C21.0304 12.8431 21.1842 12.7149 21.2923 12.5513C21.4004 12.3877 21.4581 12.196 21.4581 11.9999C21.4581 11.8038 21.4004 11.6121 21.2923 11.4485C21.1842 11.2849 21.0304 11.1567 20.85 11.0799L3.4 3.5999C3.2489 3.534 3.08377 3.50675 2.91951 3.52061C2.75525 3.53447 2.59702 3.589 2.4591 3.6793C2.32118 3.76959 2.20791 3.8928 2.1295 4.0378C2.0511 4.18281 2.01003 4.34506 2.01 4.5099L2 9.1199C2 9.6199 2.37 10.0499 2.87 10.1099L17 11.9999L2.87 13.8799C2.37 13.9499 2 14.3799 2 14.8799L2.01 19.4899C2.01 20.1999 2.74 20.6899 3.4 20.3999Z" fill="white"/>
</svg>
